# xmcd
#
# Track frame offsets:
#	150
#	14523
#	30816
#	50674
#	70296
#	89785
#	114001
#	133708
#	166246
#	185890
#	200860
#	219940
#	238233
#	256930
#
# Disc length: 3636 seconds
# Revision: 0
# Processed by: cddbd v1.5.2PL0 Copyright (c) Steve Scherf et al.
# Submitted via: dBpowerAMP V12.0
#
DISCID=cb0e320e
DTITLE=Various Artist - Twenty Thousand Roads, Disc 2 
DYEAR=2014
DGENRE=
TTITLE0=Feeling Single Seeing Double (Wayne Kemp) 
TTITLE1=One Of These Days (Earl Montgomery) 
TTITLE2=Sweet Dreams (Don Gibson)
TTITLE3=Return of the Grievous Angel (Gram Parsons) 
TTITLE4=5. Bluebird Wine (Rodney Crowell) 
TTITLE5=Pancho And Lefty (Townes Van Zant) 
TTITLE6=The Bottle Let Me Down (Merle Haggard) 
TTITLE7=Country Boy (Tony Colton/Ray Smith/Albert 
TTITLE8=Satan's Jewel Crown (Edgar Eden) 
TTITLE9=Wheels (Chris Hillman/Gram Parsons) 
TTITLE10=(You Never Can Tell) C'est La Vie
TTITLE11=Ooh Las Vegas (Rick Grech/Gram Parsons) 
TTITLE12=Emmylou Harris - Together Again
TTITLE13=Jambalaya (Hank Williams) 
EXTD=
EXTT0=
EXTT1=
EXTT2=
EXTT3=
EXTT4=
EXTT5=
EXTT6=
EXTT7=
EXTT8=
EXTT9=
EXTT10=
EXTT11=
EXTT12=
EXTT13=
PLAYORDER=
